# xmcd
#
# Track frame offsets: 
#        182
#        19187
#        35207
#        48220
#        63885
#        76495
#        94270
#        111855
#        125705
#        142477
#        161202
#        182250
#        195282
#        211467
#
# Disc length: 2999 seconds
#
# Revision: 2
# Processed by: cddbd v1.5.2PL0 Copyright (c) Steve Scherf et al.
# Submitted via: ExactAudioCopyFreeDBPlugin 1.0
#
DISCID=ca0bb50e
DTITLE=Various Artist - On The Road Again Sertanejo
DYEAR=1900
DGENRE=
TTITLE0=Chitãozinho e Xororó - No Rancho Fundo
TTITLE1=João Mineiro e Marciano - Depois Que Amanhece (No Meio Da Noit
TTITLE1=e)
TTITLE2=Tonico e Tinoco - Chora Minha Viola
TTITLE3=Chitãozinho e Xororó - Gente Humilde
TTITLE4=João Mineiro e Marciano - Quando O Amor Domina
TTITLE5=Sandy e Junior - Maria Chiquinha
TTITLE6=Tonico e Tinoco - Cabocla Tereza
TTITLE7=Tonico e Tinoco - Moreninha Linda
TTITLE8=Chitãozinho e Xororó - Deixa (Deja)
TTITLE9=Marciano - Paixão Proibida
TTITLE10=Chitãozinho e Xororó - Caipira
TTITLE11=Tonico e Tinoco - O Menino Da Porteira
TTITLE12=João Mineiro e Marciano - Carta Ao Meu Pai
TTITLE13=Tiãozinho e Alessandro - Meu Maior Sucesso
EXTD=
EXTT0=
EXTT1=
EXTT2=
EXTT3=
EXTT4=
EXTT5=
EXTT6=
EXTT7=
EXTT8=
EXTT9=
EXTT10=
EXTT11=
EXTT12=
EXTT13=
PLAYORDER=
